<?xml version="1.0" encoding="UTF-8" standalone="no"?>
<!-- Created with Inkscape (http://www.inkscape.org/) -->

<svg
   width="500"
   height="250"
   viewBox="0 0 500 250"
   version="1.1"
   id="svg1"
   xml:space="preserve"
   inkscape:version="1.4 (e7c3feb100, 2024-10-09)"
   sodipodi:docname="landscape-logo-white.svg"
   inkscape:export-filename="landscape-logo-white.png"
   inkscape:export-xdpi="96"
   inkscape:export-ydpi="96"
   xmlns:inkscape="http://www.inkscape.org/namespaces/inkscape"
   xmlns:sodipodi="http://sodipodi.sourceforge.net/DTD/sodipodi-0.dtd"
   xmlns:xlink="http://www.w3.org/1999/xlink"
   xmlns="http://www.w3.org/2000/svg"
   xmlns:svg="http://www.w3.org/2000/svg"><sodipodi:namedview
     id="namedview1"
     pagecolor="#ffffff"
     bordercolor="#000000"
     borderopacity="0.25"
     inkscape:showpageshadow="2"
     inkscape:pageopacity="0.0"
     inkscape:pagecheckerboard="0"
     inkscape:deskcolor="#d1d1d1"
     inkscape:document-units="px"
     inkscape:zoom="1.5266125"
     inkscape:cx="237.12632"
     inkscape:cy="150.33284"
     inkscape:window-width="1707"
     inkscape:window-height="994"
     inkscape:window-x="0"
     inkscape:window-y="0"
     inkscape:window-maximized="1"
     inkscape:current-layer="layer1" /><defs
     id="defs1"><linearGradient
       id="linearGradient9"
       inkscape:collect="always"><stop
         style="stop-color:#5e81af;stop-opacity:1;"
         offset="0.22785442"
         id="stop9" /><stop
         style="stop-color:#81a1c1;stop-opacity:0.3786169;"
         offset="1"
         id="stop10" /></linearGradient><linearGradient
       inkscape:collect="always"
       xlink:href="#linearGradient9"
       id="linearGradient10"
       x1="11.820788"
       y1="23.661001"
       x2="27.179237"
       y2="9.3390169"
       gradientUnits="userSpaceOnUse"
       gradientTransform="translate(-1.9999975,-3.9999975)" /></defs><g
     inkscape:label="Layer 1"
     inkscape:groupmode="layer"
     id="layer1"><g
       style="fill:none"
       id="g1"
       transform="matrix(6.0460451,0,0,6.0460451,19.275281,28.263278)"
       inkscape:label="logo"><path
         d="m 8.5194025,3.0517025 c -0.2929,-0.12106 -0.52314,-0.35309 -0.63823,-0.63556 l -0.95217,-2.15889 c -0.17788,-0.343 -0.69058,-0.343 -0.858,0 l -0.95217,2.15889 c -0.12556,0.28247 -0.35575,0.50441 -0.63826,0.63556 l -1.21375,0.52459 c -0.35576,0.1715 -0.35576,0.66583 0,0.83733 l 1.21375,0.52459 c 0.29297,0.12106 0.52317,0.35309 0.63826,0.63556 l 0.95217,2.16893 c 0.17788,0.3431 0.69058,0.3431 0.858,0 l 0.95217,-2.16893 c 0.12553,-0.28247 0.35573,-0.50441 0.63823,-0.63556 l 1.2138,-0.52459 c 0.3557005,-0.1715 0.3557005,-0.66583 0,-0.83733 z"
         id="path1"
         style="fill:#81a1c1"
         inkscape:label="tl"
         transform="translate(1.9999864,3.4999865)" /><path
         d="m 23.574403,9.5546025 c -0.869901,-0.3873 -1.557801,-1.1007 -1.921901,-1.9771 l -2.8628,-6.76727 c -0.526,-1.08031 -2.0534,-1.08031 -2.5794,0 l -2.862799,6.76727 c -0.374201,0.8764 -1.0621,1.5898 -1.9219,1.9771 L 7.8041925,11.195503 c -1.07225,0.5299 -1.07225,2.0791 0,2.609 l 3.6214105,1.6409 c 0.869899,0.3873 1.5578,1.100699 1.9219,1.977099 l 2.862799,6.7673 c 0.526,1.0803 2.0534,1.0803 2.5794,0 l 2.8628,-6.7673 c 0.3742,-0.8764 1.062101,-1.589799 1.921901,-1.977099 l 3.6214,-1.6409 c 1.072299,-0.5299 1.072299,-2.0791 0,-2.609 z"
         id="path2"
         style="fill:url(#linearGradient10)"
         inkscape:label="right"
         transform="translate(1.9999864,3.4999865)" /><path
         d="m 6.2811025,16.330403 c 0.16063,0.3918 0.45355,0.695399 0.82205,0.8717 l 1.54965,0.7249 c 0.4629,0.2351 0.4629,0.9109 0,1.146 l -1.54965,0.7249 c -0.3685,0.1763 -0.66142,0.4897 -0.82205,0.8717 l -1.22834,2.9778 c -0.22678,0.4701 -0.87874,0.4701 -1.10552,0 l -1.22834,-2.977801 c -0.16063,-0.3918 -0.45355,-0.6954 -0.82205,-0.8717 l -1.54961,-0.7249 c -0.46299,-0.235099 -0.46299,-0.9109 0,-1.146 l 1.54961,-0.7249 c 0.3685,-0.1763 0.66142,-0.4897 0.82205,-0.8717 l 1.22834,-2.977799 c 0.22678,-0.4701 0.87874,-0.4701 1.10552,0 z"
         id="path3"
         style="fill:#5e81ac;fill-opacity:1"
         inkscape:label="bl"
         transform="translate(1.9999864,3.4999865)" /></g><path
       style="font-weight:bold;font-size:85.3333px;line-height:0;font-family:Manrope;-inkscape-font-specification:'Manrope Medium';fill:#d8dee9;stroke:#d8dee9"
       d="m 222.76326,155.71999 19.37066,-61.439978 h 15.06133 l 19.37066,61.439978 h -10.58133 l -17.57866,-55.12531 h 2.304 l -17.36533,55.12531 z m 10.79466,-13.312 V 132.808 h 32.25599 v 9.59999 z m 68.47996,14.592 q -8.53333,0 -13.86666,-3.84 -5.33334,-3.84 -6.48534,-10.79467 l 10.496,-1.62133 q 0.81067,3.41333 3.584,5.376 2.77333,1.96267 6.99733,1.96267 3.712,0 5.71733,-1.45067 2.048,-1.49333 2.048,-4.05333 0,-1.57867 -0.768,-2.51733 -0.72533,-0.98134 -3.24267,-1.87734 -2.51733,-0.896 -7.72266,-2.26133 -5.80266,-1.536 -9.216,-3.28533 -3.41333,-1.792 -4.90666,-4.224 -1.49333,-2.432 -1.49333,-5.888 0,-4.30933 2.26133,-7.50933 2.26133,-3.2 6.31466,-4.90666 4.05334,-1.74933 9.55733,-1.74933 5.376,0 9.51467,1.664 4.18133,1.66399 6.74133,4.73599 2.56,3.072 3.15733,7.21067 l -10.496,1.87733 q -0.384,-2.944 -2.688,-4.65067 -2.26133,-1.70666 -6.05866,-1.91999 -3.62667,-0.21334 -5.84533,1.10933 -2.21867,1.28 -2.21867,3.62666 0,1.32267 0.896,2.26134 0.896,0.93866 3.584,1.87733 2.73067,0.93866 8.10666,2.304 5.504,1.408 8.78933,3.24266 3.328,1.792 4.77867,4.30933 1.49333,2.51734 1.49333,6.10133 0,6.95467 -5.07733,10.92267 -5.03466,3.968 -13.95199,3.968 z m 55.42398,-1.28 q -4.56533,0.85333 -8.95999,0.72533 -4.352,-0.0853 -7.808,-1.57867 -3.456,-1.536 -5.248,-4.82133 -1.57866,-2.98666 -1.664,-6.10133 -0.0853,-3.11466 -0.0853,-7.04 V 96.840011 h 10.24 v 39.466649 q 0,2.77333 0.0427,4.864 0.0853,2.09066 0.896,3.41333 1.536,2.56 4.90667,2.85867 3.37066,0.29866 7.67999,-0.34134 z M 325.33388,117.704 v -8.06399 h 32.12798 v 8.06399 z m 42.06937,38.01599 v -46.07998 h 9.08799 v 11.22132 l -1.10933,-1.45066 q 0.85333,-2.304 2.26133,-4.18133 1.45067,-1.92 3.456,-3.15734 1.70667,-1.152 3.75467,-1.792 2.09066,-0.68266 4.26666,-0.81066 2.176,-0.17067 4.224,0.17067 V 119.24 q -2.048,-0.59733 -4.736,-0.384 -2.64533,0.21333 -4.77866,1.49333 -2.13334,1.152 -3.49867,2.944 -1.32266,1.792 -1.96266,4.096 -0.64,2.26133 -0.64,4.90667 v 23.42399 z m 34.90132,-53.07732 v -9.429325 h 10.28266 v 9.429325 z m 0,53.07732 v -46.07998 h 10.28266 v 46.07998 z m 35.96803,1.28 q -4.992,0 -8.448,-1.87734 -3.456,-1.92 -5.248,-5.07733 -1.74933,-3.15733 -1.74933,-6.95466 0,-3.328 1.10934,-5.97333 1.10933,-2.688 3.41333,-4.608 2.304,-1.96267 5.97333,-3.2 2.77333,-0.896 6.48533,-1.62133 3.75466,-0.72534 8.10666,-1.32267 4.39467,-0.64 9.17333,-1.36533 l -3.66933,2.09066 q 0.0427,-4.77866 -2.13333,-7.03999 -2.176,-2.26133 -7.33867,-2.26133 -3.11466,0 -6.01599,1.45066 -2.90134,1.45067 -4.05334,4.992 l -9.38666,-2.944 q 1.70667,-5.84533 6.48533,-9.38666 4.82133,-3.54133 12.97066,-3.54133 6.144,0 10.79467,2.00533 4.69333,2.00533 6.95466,6.57066 1.23733,2.432 1.49333,4.992 0.256,2.51733 0.256,5.504 v 28.28799 h -9.00266 v -9.984 l 1.49333,1.62133 q -3.11466,4.992 -7.296,7.33867 -4.13866,2.304 -10.36799,2.304 z m 2.048,-8.192 q 3.49866,0 5.97333,-1.23733 2.47466,-1.23734 3.92533,-3.02934 1.49333,-1.792 2.00533,-3.37066 0.81067,-1.96267 0.896,-4.48 0.128,-2.56 0.128,-4.13866 l 3.15733,0.93866 q -4.65066,0.72533 -7.97866,1.28 -3.328,0.55467 -5.71733,1.06667 -2.38933,0.46933 -4.224,1.06666 -1.792,0.64 -3.02933,1.49334 -1.23733,0.85333 -1.92,1.96266 -0.64,1.10934 -0.64,2.60267 0,1.70666 0.85333,3.02933 0.85334,1.28 2.47467,2.048 1.664,0.768 4.096,0.768 z m 35.072,6.912 V 93.000012 h 10.28266 v 62.719978 z"
       id="text1"
       aria-label="Astrial"
       inkscape:label="text" /></g></svg>
